<svg xmlns="http://www.w3.org/2000/svg" xmlns:xlink="http://www.w3.org/1999/xlink" width="42.953" height="42.949" viewBox="0 0 42.953 42.949">
  <defs>
    <clipPath id="clip-path">
      <path id="Path_21415" data-name="Path 21415" d="M27.074-29.09a2.578,2.578,0,0,0,2.577,2.577h0a2.579,2.579,0,0,0,2.577-2.577h0a2.579,2.579,0,0,0-2.577-2.58h0a2.578,2.578,0,0,0-2.577,2.58" transform="translate(-27.074 31.67)" fill="#393555"/>
    </clipPath>
  </defs>
  <g id="Group_349" data-name="Group 349" transform="translate(0 0.001)">
    <path id="Subtraction_5" data-name="Subtraction 5" d="M21.479,42.95c-5.735,0-6.508-.025-8.856-.129a15.945,15.945,0,0,1-5.212-1,10.5,10.5,0,0,1-3.806-2.479,10.463,10.463,0,0,1-2.473-3.8,15.861,15.861,0,0,1-1-5.213C.026,27.991,0,27.221,0,21.471s.026-6.52.133-8.852a15.867,15.867,0,0,1,1-5.216A10.515,10.515,0,0,1,3.606,3.6,10.556,10.556,0,0,1,7.412,1.126a15.946,15.946,0,0,1,5.212-1C14.9.025,15.652,0,21.479,0s6.581.025,8.852.129a15.948,15.948,0,0,1,5.212,1A10.556,10.556,0,0,1,39.348,3.6a10.545,10.545,0,0,1,2.476,3.8,15.811,15.811,0,0,1,1,5.216c.106,2.317.131,3.084.131,8.852s-.025,6.535-.131,8.855a15.8,15.8,0,0,1-1,5.213,10.99,10.99,0,0,1-6.281,6.281,15.946,15.946,0,0,1-5.212,1C27.984,42.925,27.212,42.95,21.479,42.95Zm0-39.08c-5.757,0-6.434.021-8.679.122a11.739,11.739,0,0,0-3.989.743,6.656,6.656,0,0,0-2.469,1.6,6.63,6.63,0,0,0-1.6,2.469A12.021,12.021,0,0,0,4,12.8c-.1,2.222-.121,2.894-.121,8.675S3.895,27.928,4,30.15a12.023,12.023,0,0,0,.743,3.989,6.7,6.7,0,0,0,1.6,2.469,6.722,6.722,0,0,0,2.469,1.608,11.95,11.95,0,0,0,3.989.739c2.3.107,3,.122,8.679.122s6.379-.015,8.678-.122a11.944,11.944,0,0,0,3.985-.739,6.691,6.691,0,0,0,2.469-1.608,6.624,6.624,0,0,0,1.6-2.469,11.658,11.658,0,0,0,.742-3.989c.1-2.262.123-2.941.123-8.679s-.022-6.413-.123-8.675a11.656,11.656,0,0,0-.742-3.988,6.575,6.575,0,0,0-1.6-2.469,6.619,6.619,0,0,0-2.469-1.6,11.736,11.736,0,0,0-3.985-.743C27.913,3.891,27.238,3.87,21.479,3.87Z" fill="#393555"/>
    <path id="Subtraction_6" data-name="Subtraction 6" d="M11.03,22.051a11.027,11.027,0,0,1-7.8-18.823,11.028,11.028,0,0,1,15.6,15.594A10.957,10.957,0,0,1,11.03,22.051Zm0-18.185a7.159,7.159,0,1,0,7.156,7.159A7.166,7.166,0,0,0,11.03,3.866Z" transform="translate(10.448 10.448)" fill="#393555"/>
    <g id="Group_347" data-name="Group 347" transform="translate(30.365 7.432)" clip-path="url(#clip-path)">
      <g id="Group_346" data-name="Group 346" transform="translate(-51.837 14.042) rotate(-45)">
        <path id="Path_21414" data-name="Path 21414" d="M30.369,0,60.74,30.371,30.371,60.74,0,30.369Z" transform="translate(0 0)" fill="#393555"/>
      </g>
    </g>
  </g>
</svg>
