<svg id="Group_349" data-name="Group 349" xmlns="http://www.w3.org/2000/svg" xmlns:xlink="http://www.w3.org/1999/xlink" width="18.539" height="18.538" viewBox="0 0 18.539 18.538">
  <defs>
    <clipPath id="clip-path">
      <path id="Path_21415" data-name="Path 21415" d="M27.074-30.556a1.113,1.113,0,0,0,1.112,1.112h0A1.113,1.113,0,0,0,29.3-30.556h0a1.113,1.113,0,0,0-1.112-1.114h0a1.113,1.113,0,0,0-1.112,1.114" transform="translate(-27.074 31.67)" fill="#757890"/>
    </clipPath>
  </defs>
  <path id="Subtraction_5" data-name="Subtraction 5" d="M9.271,18.538c-2.475,0-2.809-.011-3.822-.056A6.882,6.882,0,0,1,3.2,18.05a4.531,4.531,0,0,1-1.643-1.07A4.516,4.516,0,0,1,.489,15.339a6.846,6.846,0,0,1-.431-2.25C.011,12.081,0,11.749,0,9.267S.011,6.453.057,5.447A6.848,6.848,0,0,1,.489,3.2,4.539,4.539,0,0,1,1.556,1.555,4.556,4.556,0,0,1,3.2.486,6.882,6.882,0,0,1,5.448.056C6.429.011,6.756,0,9.271,0s2.841.011,3.82.056a6.883,6.883,0,0,1,2.25.43,4.556,4.556,0,0,1,1.642,1.069A4.551,4.551,0,0,1,18.052,3.2a6.824,6.824,0,0,1,.431,2.251c.046,1,.056,1.331.056,3.821s-.011,2.82-.056,3.822a6.821,6.821,0,0,1-.431,2.25,4.744,4.744,0,0,1-2.711,2.711,6.883,6.883,0,0,1-2.25.432C12.078,18.527,11.745,18.538,9.271,18.538Zm0-16.867c-2.485,0-2.777.009-3.746.053A5.067,5.067,0,0,0,3.8,2.043a2.873,2.873,0,0,0-1.066.692A2.862,2.862,0,0,0,2.045,3.8a5.188,5.188,0,0,0-.321,1.721c-.043.959-.052,1.249-.052,3.744s.009,2.787.052,3.746a5.189,5.189,0,0,0,.321,1.721A2.894,2.894,0,0,0,2.738,15.8a2.9,2.9,0,0,0,1.066.694,5.158,5.158,0,0,0,1.721.319c.992.046,1.3.053,3.746.053s2.753-.007,3.746-.053a5.155,5.155,0,0,0,1.72-.319A2.888,2.888,0,0,0,15.8,15.8a2.859,2.859,0,0,0,.692-1.066,5.032,5.032,0,0,0,.32-1.721c.044-.976.053-1.269.053-3.746s-.009-2.768-.053-3.744a5.031,5.031,0,0,0-.32-1.721A2.838,2.838,0,0,0,15.8,2.736a2.857,2.857,0,0,0-1.066-.692,5.066,5.066,0,0,0-1.72-.321C12.048,1.679,11.756,1.67,9.271,1.67Z" fill="#757890"/>
  <path id="Subtraction_6" data-name="Subtraction 6" d="M4.761,9.518A4.759,4.759,0,0,1,1.394,1.394,4.76,4.76,0,0,1,8.126,8.124,4.729,4.729,0,0,1,4.761,9.518Zm0-7.849a3.09,3.09,0,1,0,3.089,3.09A3.093,3.093,0,0,0,4.761,1.669Z" transform="translate(4.509 4.509)" fill="#757890"/>
  <g id="Group_347" data-name="Group 347" transform="translate(13.106 3.208)" clip-path="url(#clip-path)">
    <g id="Group_346" data-name="Group 346" transform="translate(-22.373 6.061) rotate(-45)">
      <path id="Path_21414" data-name="Path 21414" d="M13.108,0,26.216,13.108,13.108,26.216,0,13.108Z" transform="translate(0 0)" fill="#757890"/>
    </g>
  </g>
</svg>
