<svg id="Group_350" data-name="Group 350" xmlns="http://www.w3.org/2000/svg" width="18.192" height="18.191" viewBox="0 0 18.192 18.191">
  <rect id="Rectangle_756" data-name="Rectangle 756" width="3.919" height="12.693" transform="translate(0.117 5.498)" fill="#757890"/>
  <path id="Path_21404" data-name="Path 21404" d="M2.106,0A1.968,1.968,0,0,0,0,1.989,1.952,1.952,0,0,0,2.047,3.978,1.936,1.936,0,0,0,4.153,1.989,1.919,1.919,0,0,0,2.106,0Z" transform="translate(0 0)" fill="#757890"/>
  <path id="Path_21405" data-name="Path 21405" d="M18,8.9a4.627,4.627,0,0,0-3.919,2.047h-.058l-.175-1.755H10.4c.058,1.17.117,2.457.117,4.036v8.657h3.919V14.574a2.736,2.736,0,0,1,.117-.994A2.2,2.2,0,0,1,16.6,12.117c1.4,0,1.989,1.111,1.989,2.749v7.019h3.919V14.4C22.567,10.655,20.578,8.9,18,8.9Z" transform="translate(-4.317 -3.694)" fill="#757890"/>
</svg>
