<svg xmlns="http://www.w3.org/2000/svg" width="42.148" height="42.148" viewBox="0 0 42.148 42.148">
  <g id="Group_350" data-name="Group 350" transform="translate(0 -0.001)">
    <rect id="Rectangle_756" data-name="Rectangle 756" width="9.08" height="29.408" transform="translate(0.272 12.739)" fill="#393555"/>
    <path id="Path_21404" data-name="Path 21404" d="M4.879,0A4.56,4.56,0,0,0,0,4.608,4.522,4.522,0,0,0,4.743,9.215c3.117,0,4.879-2.033,4.879-4.608A4.446,4.446,0,0,0,4.879,0Z" transform="translate(0 0)" fill="#393555"/>
    <path id="Path_21405" data-name="Path 21405" d="M28.018,8.9a10.721,10.721,0,0,0-9.08,4.743H18.8L18.4,9.578h-8c.136,2.71.271,5.692.271,9.351V38.986h9.08V22.046a6.34,6.34,0,0,1,.271-2.3,5.1,5.1,0,0,1,4.743-3.388c3.253,0,4.608,2.575,4.608,6.37V38.986h9.08V21.639C38.588,12.966,33.981,8.9,28.018,8.9Z" transform="translate(3.693 3.161)" fill="#393555"/>
  </g>
</svg>
