<svg id="Group_331" data-name="Group 331" xmlns="http://www.w3.org/2000/svg" width="125.084" height="44.571" viewBox="0 0 125.084 44.571">
  <path id="Path_21393" data-name="Path 21393" d="M374.382,95.805H384.2V92.812c0-4.141-1.538-6.11-4.962-6.11-3.26,0-4.839,2.3-4.839,7.012v2.091Zm0,.882v7.4c0,5.228,1.845,7.586,6.376,7.586,4.387,0,7.832-2.993,9.185-8.221h.964c-1.538,5.925-5.413,9.308-10.395,9.308-6.376,0-11.912-5.679-11.912-13.326,0-7.893,4.9-13.634,10.907-13.634,5.741,0,10.518,4.387,10.969,10.907H374.382Z" transform="translate(-293.029 -68.209)" fill-rule="evenodd"/>
  <path id="Path_21394" data-name="Path 21394" d="M20.974,84.461v17.632c-2.542,4.141-5.228,6.253-8.221,6.253-2.809,0-3.752-1.538-3.752-4.839V82.8a17.013,17.013,0,0,1-5.925.759H0v.9H3.629V101.58c0,4.9,3.178,7.975,8.16,7.975,3.752,0,6.561-1.845,9.1-5.679v5.679H29.81v-.9H26.243V82.8a17.013,17.013,0,0,1-5.925.759H17.263v.9Z" transform="translate(0 -65.824)"/>
  <path id="Path_21395" data-name="Path 21395" d="M138.4,43.711h12.486v-.9H147.38V0a10.822,10.822,0,0,1-5.925,1.538H138.4v.9h3.629V42.85H138.4v.861Z" transform="translate(-110.025)"/>
  <path id="Path_21396" data-name="Path 21396" d="M479.621,111.84h12.486v-.9H488.6V96.033c1.271-5.987,3.813-9.246,6.11-9.246a3.255,3.255,0,0,1,.759.123,4.007,4.007,0,0,0-1.21,2.481,2.832,2.832,0,0,0,2.87,2.686c1.538,0,2.542-1.148,2.542-3.055s-1.6-3.321-4.08-3.321c-2.993,0-5.228,2.173-7.012,6.622v-6.6a17.013,17.013,0,0,1-5.925.759H479.6v.9h3.629v23.577H479.6v.882Z" transform="translate(-381.272 -68.13)"/>
  <path id="Path_21397" data-name="Path 21397" d="M574.362,55.4h-1.087v4.018h.718v-3.26h.021l1.251,3.26h.492l1.251-3.26h.021v3.26h.718V55.4h-1.087l-1.128,2.952L574.362,55.4Zm-1.784,0H569.4v.595h1.23v3.424h.718V55.995h1.23V55.4Z" transform="translate(-452.661 -44.042)" fill-rule="evenodd"/>
  <path id="Path_21398" data-name="Path 21398" d="M305.022,77.58V57.569H312.1v-.9h-7.073V48.2h-.759c-.923,5.577-1.927,7.873-6.663,8.467v.9h2.583V76.616c0,1.661.123,3.055,1.394,4.264a7.5,7.5,0,0,0,5.228,1.907,6.373,6.373,0,0,0,6.438-4.839h-.964a4.7,4.7,0,0,1-4.531,3.506c-2.112,0-2.727-1.21-2.727-3.875Z" transform="translate(-236.586 -38.318)"/>
  <path id="Path_21399" data-name="Path 21399" d="M204.262,111.648h.964c0-1.271.349-1.784,1.169-1.784.841,0,2.911,2.44,7.75,2.44,5.187,0,8.713-3.588,8.713-9.082,0-4.223-2.624-7.114-7.34-7.75-3.321-.451-6.171-.123-7.893-1.722a4.151,4.151,0,0,1-1.251-2.952c0-2.624,2.276-4.674,5.679-4.674,4.08,0,6.5,2.173,7.545,6.6h.759V85.2h-1.107a2.454,2.454,0,0,1,.061.636c0,.7-.287,1.087-.841,1.087-.492,0-2.624-1.661-6.581-1.661a7.568,7.568,0,0,0-7.688,7.811c0,4.49,3.26,7.3,8.939,7.3,4.367,0,6.725,1.784,6.725,4.859,0,3.649-2.358,5.884-6.233,5.884-4.49,0-7.053-2.624-8.713-8.447h-.7v8.98Z" transform="translate(-162.335 -67.732)"/>
</svg>
