<svg xmlns="http://www.w3.org/2000/svg" width="1576.323" height="267.064" viewBox="0 0 1576.323 267.064">
  <g id="Group_751" data-name="Group 751" transform="translate(-201.26 -260.418)" opacity="0.029">
    <g id="Group_738" data-name="Group 738" transform="translate(201.26 302.349)">
      <path id="Path_21515" data-name="Path 21515" d="M613.086,279.351v31.887a7.231,7.231,0,0,0,2.117,5.112L657.448,358.6a7.23,7.23,0,0,1,0,10.225L615.2,411.066a7.225,7.225,0,0,0-2.117,5.112v31.887a7.233,7.233,0,0,0,12.345,5.116l84.357-84.361a7.23,7.23,0,0,0,0-10.225l-84.357-84.357a7.231,7.231,0,0,0-12.345,5.112" transform="translate(864.417 -272.105)" fill="#1a1818"/>
      <path id="Path_21516" data-name="Path 21516" d="M300.079,448.05V416.18a7.245,7.245,0,0,0-2.12-5.12l-42.241-42.241a7.228,7.228,0,0,1,0-10.228l42.241-42.245a7.237,7.237,0,0,0,2.12-5.116V279.36a7.239,7.239,0,0,0-12.356-5.12l-84.343,84.35a7.228,7.228,0,0,0,0,10.228l84.343,84.343a7.237,7.237,0,0,0,12.356-5.112" transform="translate(-201.26 -272.1)" fill="#1a1818"/>
    </g>
    <g id="Group_739" data-name="Group 739" transform="translate(292.789 260.418)">
      <path id="Path_21517" data-name="Path 21517" d="M1537.236,512.152a27.721,27.721,0,0,0,27.686-27.686v-54.92l33.757-35.593-33.757-35.593V303.442a27.724,27.724,0,0,0-27.686-27.69H309.572a27.724,27.724,0,0,0-27.686,27.69v54.917l-33.76,35.593,33.76,35.593v54.92a27.721,27.721,0,0,0,27.686,27.686ZM309.572,527.482a43.065,43.065,0,0,1-43.02-43.016V434.629l-39.78-40.677,39.78-40.681V303.442a43.069,43.069,0,0,1,43.02-43.024H1537.236a43.069,43.069,0,0,1,43.02,43.024v49.829l39.78,40.681-39.78,40.677v49.837a43.065,43.065,0,0,1-43.02,43.016Z" transform="translate(-226.772 -260.418)" fill="#1a1818"/>
    </g>
    <g id="Group_742" data-name="Group 742" transform="translate(396.548 325.603)">
      <path id="Path_21518" data-name="Path 21518" d="M375.7,328.616,339.477,401.85H321.645L285.6,328.616V412.97H255.693V278.961h40.453l34.509,73.618,34.7-73.618h40.26V412.97H375.7Z" transform="translate(-255.693 -277.619)" fill="#1a1818"/>
      <g id="Group_740" data-name="Group 740" transform="translate(161.809 1.342)">
        <path id="Path_21519" data-name="Path 21519" d="M338.178,378.365q7.475,9.3,20.134,9.3t20.03-9.3q7.378-9.294,7.384-25.4v-74h29.907v74.961q0,29.141-16.105,44.764t-41.215,15.628q-25.126,0-41.319-15.721t-16.2-44.67V278.961H330.7v74q0,16.112,7.473,25.4" transform="translate(-300.794 -278.961)" fill="#1a1818"/>
      </g>
      <path id="Path_21520" data-name="Path 21520" d="M336.114,412.97V278.961h29.907V386.32h57.134v26.65Z" transform="translate(-47.588 -277.62)" fill="#1a1818"/>
      <path id="Path_21521" data-name="Path 21521" d="M422.686,304.843V412.97H392.779V304.843h-37.96V278.961H460.646v25.882Z" transform="translate(0.813 -277.62)" fill="#1a1818"/>
      <rect id="Rectangle_1728" data-name="Rectangle 1728" width="29.907" height="134.009" transform="translate(471.807 1.343)" fill="#1a1818"/>
      <path id="Path_21522" data-name="Path 21522" d="M578.384,278.908h14l-45.436,134.2h-13.8L495.375,295.585,457.221,413.107h-13.61l-45.242-134.2h14.378l38.147,120.2,37.96-120.2h13.424l38.147,120.2Z" transform="translate(113.506 -277.756)" fill="#1a1818"/>
      <rect id="Rectangle_1729" data-name="Rectangle 1729" width="13.23" height="134.009" transform="translate(712.788 1.343)" fill="#1a1818"/>
      <g id="Group_741" data-name="Group 741" transform="translate(749.02 1.342)">
        <path id="Path_21523" data-name="Path 21523" d="M546.526,393.8a55.144,55.144,0,0,0-.291-95.662,55.611,55.611,0,0,0-28.088-7.287H477.692V401.082h41.032a54.747,54.747,0,0,0,27.8-7.287m6.8-106.016a66.444,66.444,0,0,1-.093,116.37,71.539,71.539,0,0,1-35.278,8.818H464.468V278.961h53.873a70.608,70.608,0,0,1,34.987,8.819" transform="translate(-464.468 -278.961)" fill="#1a1818"/>
      </g>
      <path id="Path_21524" data-name="Path 21524" d="M495.14,278.908h101.8v12.078H552.654V413.107H539.428V290.987H495.14Z" transform="translate(363.921 -277.756)" fill="#1a1818"/>
      <path id="Path_21525" data-name="Path 21525" d="M525.706,278.961h13.23V340.31h83.777V278.961h13.23V412.97h-13.23V352.2H538.935V412.97h-13.23Z" transform="translate(443.015 -277.62)" fill="#1a1818"/>
      <path id="Path_21526" data-name="Path 21526" d="M629.716,293.831a67.363,67.363,0,0,0-18.408-2.78q-13.8,0-22.14,5.464t-8.341,14.853q0,8.245,4.6,13.422a32.46,32.46,0,0,0,11.319,8.148,177.792,177.792,0,0,0,18.4,6.612,158.452,158.452,0,0,1,21.953,7.957,38.84,38.84,0,0,1,14.182,11.412q5.85,7.47,5.852,19.74a31.254,31.254,0,0,1-6.038,18.979q-6.038,8.25-16.966,12.754a65.445,65.445,0,0,1-25.121,4.506,70.287,70.287,0,0,1-27.32-5.561,73.459,73.459,0,0,1-22.9-14.763l6.131-10.924a66.093,66.093,0,0,0,20.9,13.8,60.2,60.2,0,0,0,23.388,4.983q15.337,0,24.353-6.232t9.005-16.772q0-8.438-4.6-13.806a30.563,30.563,0,0,0-11.309-8.244q-6.716-2.868-18.792-6.709A191.229,191.229,0,0,1,586,342.71,36.8,36.8,0,0,1,572.012,331.6q-5.758-7.378-5.751-19.27a28.859,28.859,0,0,1,5.751-17.827,36.317,36.317,0,0,1,16.105-11.793,64.45,64.45,0,0,1,23.962-4.122,80.753,80.753,0,0,1,41.413,11.886l-5.755,11.312a69.317,69.317,0,0,0-18.021-7.954" transform="translate(528.612 -278.587)" fill="#1a1818"/>
    </g>
  </g>
</svg>
