<svg xmlns="http://www.w3.org/2000/svg" width="418.973" height="2472.954" viewBox="0 0 418.973 2472.954">
  <g id="Group_778" data-name="Group 778" transform="translate(-260.418 2674.214) rotate(-90)" opacity="0.36">
    <g id="Group_738" data-name="Group 738" transform="translate(201.26 326.199)">
      <path id="Path_21515" data-name="Path 21515" d="M613.086,283.473V333.5a11.345,11.345,0,0,0,3.321,8.021l66.274,66.275a11.342,11.342,0,0,1,0,16.041l-66.274,66.275a11.334,11.334,0,0,0-3.321,8.021v50.025a11.347,11.347,0,0,0,19.367,8.026l132.34-132.346a11.342,11.342,0,0,0,0-16.041L632.453,275.452a11.344,11.344,0,0,0-19.367,8.02" transform="translate(1704.839 -272.105)" fill="#14212c"/>
      <path id="Path_21516" data-name="Path 21516" d="M356.289,548.128v-50a11.366,11.366,0,0,0-3.326-8.032L286.694,423.83a11.339,11.339,0,0,1,0-16.046l66.269-66.275a11.354,11.354,0,0,0,3.326-8.026v-50a11.356,11.356,0,0,0-19.384-8.032L204.586,407.784a11.339,11.339,0,0,0,0,16.046L336.9,556.148a11.354,11.354,0,0,0,19.384-8.021" transform="translate(-201.26 -272.096)" fill="#14212c"/>
    </g>
    <g id="Group_739" data-name="Group 739" transform="translate(344.852 260.418)">
      <path id="Path_21517" data-name="Path 21517" d="M2282.644,655.341a43.488,43.488,0,0,0,43.434-43.434v-86.16l52.958-55.839-52.958-55.839V327.914a43.493,43.493,0,0,0-43.434-43.44H356.67a43.493,43.493,0,0,0-43.434,43.44v86.154l-52.963,55.839,52.963,55.839v86.16a43.489,43.489,0,0,0,43.434,43.434ZM356.67,679.391a67.561,67.561,0,0,1-67.49-67.484V533.722l-62.408-63.815,62.408-63.821V327.914a67.567,67.567,0,0,1,67.49-67.5H2282.644a67.567,67.567,0,0,1,67.49,67.5v78.173l62.408,63.821-62.408,63.815v78.184a67.561,67.561,0,0,1-67.49,67.484Z" transform="translate(-226.772 -260.418)" fill="#14212c"/>
    </g>
    <g id="Group_742" data-name="Group 742" transform="translate(507.631 362.681)">
      <path id="Path_21518" data-name="Path 21518" d="M443.969,356.86,387.134,471.75H359.159L302.611,356.86V489.2H255.693V278.961h63.464L373.3,394.453l54.431-115.492h63.16V489.2H443.969Z" transform="translate(-255.693 -276.855)" fill="#14212c"/>
      <g id="Group_740" data-name="Group 740" transform="translate(253.847 2.105)">
        <path id="Path_21519" data-name="Path 21519" d="M359.442,434.907q11.727,14.589,31.587,14.583t31.423-14.583q11.575-14.58,11.583-39.855V278.961h46.918v117.6q0,45.717-25.266,70.226T391.029,491.3q-39.418,0-64.822-24.664-25.421-24.661-25.412-70.079v-117.6h46.924V395.052q0,25.277,11.724,39.855" transform="translate(-300.794 -278.961)" fill="#14212c"/>
      </g>
      <path id="Path_21520" data-name="Path 21520" d="M336.114,489.2V278.961h46.918V447.387h89.633V489.2Z" transform="translate(116.529 -276.857)" fill="#14212c"/>
      <path id="Path_21521" data-name="Path 21521" d="M461.289,319.565V489.2H414.371V319.565H354.818v-40.6H520.842v40.6Z" transform="translate(203.1 -276.857)" fill="#14212c"/>
      <rect id="Rectangle_1728" data-name="Rectangle 1728" width="46.918" height="210.235" transform="translate(740.177 2.106)" fill="#14212c"/>
      <path id="Path_21522" data-name="Path 21522" d="M680.779,278.908h21.959l-71.28,210.533H609.8l-59.249-184.37L490.7,489.441H469.345L398.368,278.908h22.556l59.845,188.574,59.553-188.574h21.059l59.845,188.574Z" transform="translate(404.667 -277.101)" fill="#14212c"/>
      <rect id="Rectangle_1729" data-name="Rectangle 1729" width="20.755" height="210.235" transform="translate(1118.23 2.106)" fill="#14212c"/>
      <g id="Group_741" data-name="Group 741" transform="translate(1175.071 2.105)">
        <path id="Path_21523" data-name="Path 21523" d="M593.2,459.115a86.511,86.511,0,0,0-.456-150.076,87.242,87.242,0,0,0-44.065-11.431H485.214V470.546h64.372A85.889,85.889,0,0,0,593.2,459.115M603.873,292.8a104.239,104.239,0,0,1-.146,182.563q-24.974,13.837-55.344,13.834H464.468V278.961h84.516q30.073,0,54.888,13.835" transform="translate(-464.468 -278.961)" fill="#14212c"/>
      </g>
      <path id="Path_21524" data-name="Path 21524" d="M495.14,278.908H654.849v18.949h-69.48V489.441H564.62V297.857H495.14Z" transform="translate(852.565 -277.101)" fill="#14212c"/>
      <path id="Path_21525" data-name="Path 21525" d="M525.705,278.961H546.46v96.245H677.89V278.961h20.755V489.2H677.89V393.856H546.46V489.2H525.705Z" transform="translate(994.036 -276.857)" fill="#14212c"/>
      <path id="Path_21526" data-name="Path 21526" d="M670.063,302.5a105.681,105.681,0,0,0-28.879-4.362q-21.647,0-34.733,8.572t-13.086,23.3q0,12.934,7.216,21.056a50.927,50.927,0,0,0,17.758,12.782,278.919,278.919,0,0,0,28.869,10.373q21.359,6.323,34.44,12.484a60.931,60.931,0,0,1,22.249,17.9q9.178,11.718,9.18,30.967a49.032,49.032,0,0,1-9.473,29.774q-9.472,12.943-26.617,20.009t-39.41,7.069a110.268,110.268,0,0,1-42.86-8.724,115.244,115.244,0,0,1-35.932-23.161l9.619-17.138a103.69,103.69,0,0,0,32.786,21.652,94.443,94.443,0,0,0,36.692,7.818q24.062,0,38.206-9.777,14.124-9.76,14.127-26.313,0-13.238-7.215-21.658A47.947,47.947,0,0,0,665.257,402.2q-10.537-4.5-29.482-10.525a300.026,300.026,0,0,1-34.289-12.489,57.734,57.734,0,0,1-21.95-17.431q-9.034-11.575-9.022-30.23a45.274,45.274,0,0,1,9.022-27.968q9.025-12.039,25.266-18.5t37.592-6.467a126.685,126.685,0,0,1,64.969,18.647l-9.028,17.746A108.74,108.74,0,0,0,670.063,302.5" transform="translate(1147.136 -278.587)" fill="#14212c"/>
    </g>
  </g>
</svg>
