<svg xmlns="http://www.w3.org/2000/svg" width="27.204" height="29.4" viewBox="0 0 27.204 29.4">
  <g id="Group_1064" data-name="Group 1064" transform="translate(1139.576 2723.238)">
    <path id="Path_21608" data-name="Path 21608" d="M-1112.375-2712.24a.758.758,0,0,0-.025-.167c0-.016-.008-.031-.014-.047a.736.736,0,0,0-.081-.17l-.006-.008a.734.734,0,0,0-.085-.1l-3.231-3.231v-6.543a.729.729,0,0,0-.729-.729H-1135.4a.729.729,0,0,0-.729.729v6.543l-3.231,3.231a.761.761,0,0,0-.085.1l-.007.008a.736.736,0,0,0-.081.17c-.005.016-.009.031-.014.047a.758.758,0,0,0-.025.166c0,.007,0,.014,0,.021v16.447a.729.729,0,0,0,.214.516l1.2,1.2a.73.73,0,0,0,.111.091c.01.007.021.011.032.018a.711.711,0,0,0,.093.05c.016.006.032.01.049.015a.747.747,0,0,0,.088.026.709.709,0,0,0,.144.015h23.334a.71.71,0,0,0,.144-.015.792.792,0,0,0,.088-.026c.016-.005.033-.009.048-.015a.711.711,0,0,0,.093-.05c.011-.006.022-.011.032-.018a.707.707,0,0,0,.111-.091l1.2-1.2a.729.729,0,0,0,.214-.516v-16.447C-1112.372-2712.226-1112.375-2712.233-1112.375-2712.24Zm-25.743,16.165v-14.382l7.532,7.545-7.064,7.3Zm8.864-6.116h6.56l6.667,6.894h-19.9Zm15.424-8.266v14.382l-.468.468-7.064-7.3Zm-20.843-11.323h17.4v12.709l-5.412,5.421h-6.574l-5.412-5.421v-12.709Z" fill="#757890"/>
    <rect id="Rectangle_1920" data-name="Rectangle 1920" width="5.583" height="12.078" transform="translate(-1132.862 -2719.787)" fill="#757890"/>
    <rect id="Rectangle_1921" data-name="Rectangle 1921" width="7.085" height="2.067" transform="translate(-1126.275 -2719.787)" fill="#757890"/>
    <rect id="Rectangle_1922" data-name="Rectangle 1922" width="7.085" height="1.272" transform="translate(-1126.275 -2712.855)" fill="#757890"/>
    <rect id="Rectangle_1923" data-name="Rectangle 1923" width="7.085" height="1.272" transform="translate(-1126.275 -2710.918)" fill="#757890"/>
    <rect id="Rectangle_1924" data-name="Rectangle 1924" width="7.085" height="1.272" transform="translate(-1126.275 -2708.981)" fill="#757890"/>
    <rect id="Rectangle_1925" data-name="Rectangle 1925" width="7.085" height="2.067" transform="translate(-1126.275 -2717.979)" fill="#757890"/>
  </g>
</svg>
