<svg xmlns="http://www.w3.org/2000/svg" width="14.251" height="18.403" viewBox="0 0 14.251 18.403">
  <path id="Path_21416" data-name="Path 21416" d="M12.354,1.827A6.632,6.632,0,0,0,8.671.131,9,9,0,0,0,4.164.713a6.82,6.82,0,0,0-3.3,2.811A6.233,6.233,0,0,0,0,6.722,5.161,5.161,0,0,0,.626,9.29,3.584,3.584,0,0,0,2.08,10.647a.482.482,0,0,0,.436.048.5.5,0,0,0,.194-.339,6.934,6.934,0,0,0,.242-.872c.048-.242,0-.291-.388-.775a3.782,3.782,0,0,1-.436-2.762A5.008,5.008,0,0,1,2.9,4.105a4.18,4.18,0,0,1,.969-1.066A5.375,5.375,0,0,1,7.75,1.876a4.14,4.14,0,0,1,3.3,1.745,5.687,5.687,0,0,1,.436,4.168,5.586,5.586,0,0,1-1.5,3.053,2.336,2.336,0,0,1-1.793.678,1.632,1.632,0,0,1-1.6-1.357,4.7,4.7,0,0,1,.388-1.938,6.411,6.411,0,0,0,.533-2.908A1.335,1.335,0,0,0,5.86,4.2a2.384,2.384,0,0,0-1.7,2.084,4.155,4.155,0,0,0,.291,2.278s-.775,3.344-.824,3.538S3,14.573,2.9,15.445a19.877,19.877,0,0,0,.145,2.811c0,.048.048.1.048.145.048.048.1.1.194.048a1.057,1.057,0,0,0,.194-.242c.1-.1.388-.533.727-1.018a9.014,9.014,0,0,0,.63-1.115,7.655,7.655,0,0,0,.485-1.357l.678-2.665A3.129,3.129,0,0,0,8.38,13.361a4.821,4.821,0,0,0,3.15-.921,6.732,6.732,0,0,0,2.035-2.665,8.528,8.528,0,0,0,.582-2.132,11.426,11.426,0,0,0,.1-1.842A5.827,5.827,0,0,0,12.354,1.827Z" transform="translate(0.007 -0.067)" fill="#757890"/>
</svg>
