<svg xmlns="http://www.w3.org/2000/svg" width="33.018" height="42.639" viewBox="0 0 33.018 42.639">
  <path id="Path_21416" data-name="Path 21416" d="M28.632,4.146A15.365,15.365,0,0,0,20.1.216,20.845,20.845,0,0,0,9.657,1.564,15.8,15.8,0,0,0,2.022,8.076,14.442,14.442,0,0,0,0,15.486a11.957,11.957,0,0,0,1.46,5.951,8.3,8.3,0,0,0,3.368,3.144,1.118,1.118,0,0,0,1.011.112,1.147,1.147,0,0,0,.449-.786,16.066,16.066,0,0,0,.561-2.021c.112-.561,0-.674-.9-1.8-1.011-1.347-1.46-3.817-1.011-6.4a11.6,11.6,0,0,1,1.8-4.267,9.685,9.685,0,0,1,2.246-2.47,12.453,12.453,0,0,1,8.982-2.695C22.007,4.6,24.141,6.279,25.6,8.3c1.46,2.133,1.8,5.614,1.011,9.656A12.943,12.943,0,0,1,23.13,25.03,5.412,5.412,0,0,1,18.976,26.6a3.781,3.781,0,0,1-3.705-3.144c-.112-.786,0-1.46.9-4.491,1.123-3.593,1.46-4.828,1.235-6.737a3.093,3.093,0,0,0-3.817-2.582c-1.684.337-3.481,2.021-3.93,4.828a9.626,9.626,0,0,0,.674,5.277s-1.8,7.747-1.909,8.2S6.962,33.675,6.738,35.7a46.052,46.052,0,0,0,.337,6.512c0,.112.112.225.112.337.112.112.225.225.449.112a2.449,2.449,0,0,0,.449-.561c.225-.225.9-1.235,1.684-2.358a20.884,20.884,0,0,0,1.46-2.582,17.735,17.735,0,0,0,1.123-3.144l1.572-6.175c1.011,1.8,3.593,2.919,5.5,3.032a11.169,11.169,0,0,0,7.3-2.133,15.6,15.6,0,0,0,4.716-6.175,19.758,19.758,0,0,0,1.347-4.94,26.473,26.473,0,0,0,.225-4.267A13.5,13.5,0,0,0,28.632,4.146Z" transform="translate(0.007 -0.066)" fill="#393555"/>
</svg>
