<svg xmlns="http://www.w3.org/2000/svg" width="325" height="186.371" viewBox="0 0 325 186.371">
  <g id="Group_1231" data-name="Group 1231" transform="translate(-40 -234)">
    <rect id="Rectangle_2098" data-name="Rectangle 2098" width="325" height="186.371" transform="translate(40 234)" fill="#fff"/>
    <g id="Group_1226" data-name="Group 1226" transform="translate(88.552 286.257)">
      <path id="Path_21393" data-name="Path 21393" d="M379.092,103.957h17.822V98.524c0-7.516-2.79-11.087-9-11.087-5.916,0-8.781,4.167-8.781,12.724v3.8Zm0,1.6v13.431c0,9.488,3.349,13.766,11.571,13.766,7.962,0,14.213-5.432,16.668-14.92h1.749c-2.791,10.753-9.822,16.892-18.864,16.892-11.571,0-21.617-10.306-21.617-24.184,0-14.324,8.892-24.742,19.794-24.742,10.418,0,19.087,7.962,19.905,19.794H379.092Z" transform="translate(-231.458 -53.877)" fill="#7b7b7b" fill-rule="evenodd"/>
      <path id="Path_21394" data-name="Path 21394" d="M38.062,85.814v32c-4.614,7.516-9.488,11.348-14.92,11.348-5.1,0-6.809-2.79-6.809-8.781V82.8c-2.307.93-5.916,1.377-10.753,1.377H0v1.637H6.585v31.067c0,8.892,5.767,14.473,14.808,14.473,6.809,0,11.906-3.349,16.52-10.306v10.306H54.1v-1.637H47.624V82.8c-2.307.93-5.916,1.377-10.753,1.377H31.328v1.637Z" transform="translate(0 -51.993)" fill="#7b7b7b"/>
      <path id="Path_21395" data-name="Path 21395" d="M138.4,79.323h22.658V77.686H154.7V0a19.638,19.638,0,0,1-10.753,2.79H138.4V4.428h6.585V77.761H138.4v1.563Z" transform="translate(-86.907)" fill="#7b7b7b"/>
      <path id="Path_21396" data-name="Path 21396" d="M479.637,133.138H502.3V131.5h-6.362V104.452c2.307-10.864,6.92-16.78,11.087-16.78a5.906,5.906,0,0,1,1.377.223c-1.377,1.637-2.2,3.014-2.2,4.5a5.14,5.14,0,0,0,5.209,4.874c2.79,0,4.614-2.084,4.614-5.544s-2.9-6.027-7.4-6.027c-5.432,0-9.488,3.944-12.725,12.018V85.737c-2.307.93-5.916,1.377-10.753,1.377H479.6v1.637h6.586v42.787H479.6v1.6Z" transform="translate(-301.159 -53.814)" fill="#7b7b7b"/>
      <path id="Path_21397" data-name="Path 21397" d="M578.4,55.4h-1.972v7.292h1.3V56.777h.037l2.27,5.916h.893l2.27-5.916h.037v5.916h1.3V55.4h-1.972l-2.047,5.358L578.4,55.4Zm-3.237,0H569.4v1.079h2.232v6.213h1.3V56.479h2.232V55.4Z" transform="translate(-357.548 -34.788)" fill="#7b7b7b" fill-rule="evenodd"/>
      <path id="Path_21398" data-name="Path 21398" d="M311.069,101.516V65.2H323.9V63.566H311.069V48.2h-1.377c-1.674,10.12-3.5,14.287-12.092,15.366V65.2h4.688V99.768c0,3.014.223,5.544,2.53,7.739a13.6,13.6,0,0,0,9.487,3.46c5.767,0,9.934-3.125,11.683-8.781H324.24c-1.377,4.055-4.39,6.362-8.223,6.362s-4.948-2.2-4.948-7.032Z" transform="translate(-186.875 -30.267)" fill="#7b7b7b"/>
      <path id="Path_21399" data-name="Path 21399" d="M204.312,133.2h1.749c0-2.307.633-3.237,2.121-3.237,1.525,0,5.283,4.428,14.064,4.428,9.413,0,15.813-6.511,15.813-16.482,0-7.664-4.762-12.911-13.32-14.064-6.027-.819-11.2-.223-14.324-3.125a7.534,7.534,0,0,1-2.27-5.358c0-4.762,4.13-8.483,10.306-8.483,7.4,0,11.794,3.944,13.692,11.98h1.377V85.2h-2.009a4.452,4.452,0,0,1,.112,1.153c0,1.265-.521,1.972-1.525,1.972-.893,0-4.762-3.014-11.943-3.014-8.036,0-13.952,6.139-13.952,14.176,0,8.148,5.916,13.245,16.222,13.245,7.925,0,12.2,3.237,12.2,8.818,0,6.623-4.279,10.678-11.311,10.678-8.148,0-12.8-4.762-15.813-15.329h-1.265v16.3Z" transform="translate(-128.225 -53.5)" fill="#7b7b7b"/>
    </g>
  </g>
</svg>
