<svg xmlns="http://www.w3.org/2000/svg" width="173.24" height="576.328" viewBox="0 0 173.24 576.328">
  <path id="Path_21637" data-name="Path 21637" d="M-160.918,0l-40.748-57.1a124.617,124.617,0,0,1-16.592,1.22h-48.8V0H-279.5V-170.8h61.244q32.208,0,50.508,15.25t18.3,42.334q0,20.252-10.37,34.038t-29.646,19.4L-146.766,0Zm-57.34-66.856q27.328,0,41.724-12.078t14.4-34.282q0-22.2-14.4-34.282t-41.724-12.078h-48.8v92.72ZM-66.246,1.22q-32.452,0-50.386-18.788t-17.934-54.9V-170.8h12.444v97.844q0,31.476,14.4,47.092T-66-10.248q27.084,0,41.48-15.616t14.4-47.092V-170.8H2.318v98.332q0,36.112-18.056,54.9T-66.246,1.22ZM153.11-84.668h11.956V-20.74A74.431,74.431,0,0,1,137.86-4.392,101.256,101.256,0,0,1,104.066,1.22Q78.69,1.22,58.316-10A82.453,82.453,0,0,1,26.352-40.992Q14.762-60.756,14.762-85.4t11.59-44.408A82.453,82.453,0,0,1,58.316-160.8Q78.69-172.02,104.31-172.02a96.486,96.486,0,0,1,34.526,5.978A73.9,73.9,0,0,1,165.8-148.6l-7.808,8.3a64.536,64.536,0,0,0-24.034-15.494,86.755,86.755,0,0,0-29.4-4.758q-21.96,0-39.65,9.76A71.184,71.184,0,0,0,37.21-123.83a75.035,75.035,0,0,0-10,38.43A73.875,73.875,0,0,0,37.332-47.214,73.19,73.19,0,0,0,65.026-20.13q17.568,9.882,39.528,9.882,29.28,0,48.556-15.616ZM235.338,1.22a99.475,99.475,0,0,1-35.746-6.466q-16.958-6.466-26.474-16.714l5.612-9.272q9.028,9.516,24.278,15.494A87.128,87.128,0,0,0,235.094-9.76q24.4,0,36.844-9.272t12.444-24.156q0-11.468-6.588-18.3A43.57,43.57,0,0,0,261.446-71.98a224.6,224.6,0,0,0-26.352-7.564,256.968,256.968,0,0,1-30.134-9.028,48.107,48.107,0,0,1-19.276-13.542q-7.93-9.15-7.93-24.522a41.7,41.7,0,0,1,6.588-22.814q6.588-10.37,20.13-16.47t33.794-6.1a95.254,95.254,0,0,1,27.816,4.148,81.82,81.82,0,0,1,23.668,11.224l-4.636,10a79.052,79.052,0,0,0-22.57-10.736,84.974,84.974,0,0,0-24.278-3.66q-23.668,0-35.868,9.516T190.2-126.88q0,11.468,6.588,18.3a43.57,43.57,0,0,0,16.348,10.492,248.17,248.17,0,0,0,26.6,7.808,249.279,249.279,0,0,1,30.012,9.028,49.361,49.361,0,0,1,19.154,13.3q7.93,8.906,7.93,24.034a40.553,40.553,0,0,1-6.71,22.692Q283.406-10.98,269.5-4.88T235.338,1.22Z" transform="translate(172.02 296.826) rotate(-90)" fill="#fff"/>
</svg>
