<svg xmlns="http://www.w3.org/2000/svg" width="28.252" height="47.026" viewBox="0 0 28.252 47.026">
  <g id="Group_952" data-name="Group 952" transform="translate(-722.419 -978.987)" opacity="0.104">
    <g id="Union_34" data-name="Union 34" transform="translate(722.419 978.987)" fill="none">
      <path d="M14,47.026A14,14,0,0,1,0,33.385H0V14A14,14,0,0,1,14,0h.252a14,14,0,0,1,14,14V33.385h0A14,14,0,0,1,14.252,47.026Z" stroke="none"/>
      <path d="M 14.25240039825439 45.02590179443359 C 17.40416145324707 45.02590179443359 20.38139152526855 43.81340026855469 22.63567161560059 41.61175918579102 C 24.88619995117188 39.41378021240234 26.16908073425293 36.47414016723633 26.24800109863281 33.3343505859375 L 26.25190162658691 33.19232559204102 L 26.25190162658691 14.00040054321289 C 26.25190162658691 10.79472064971924 25.00375175476074 7.781060695648193 22.73737144470215 5.514580726623535 C 20.47106170654297 3.248170852661133 17.45770072937012 2.000000953674316 14.25240039825439 2.000000953674316 L 14.00040054321289 2.000000953674316 C 10.79469108581543 2.000000953674316 7.781050682067871 3.248180866241455 5.514610767364502 5.514610767364502 C 3.248180866241455 7.781050682067871 2.000000715255737 10.79469108581543 2.000000715255737 14.00040054321289 L 2.000000715255737 33.0255012512207 L 2.000000715255737 33.17959594726562 L 2.003890752792358 33.3343505859375 C 2.082810878753662 36.47415924072266 3.365730762481689 39.41379928588867 5.616310596466064 41.61173248291016 C 7.870710849761963 43.81339263916016 10.84824085235596 45.02590179443359 14.00040054321289 45.02590179443359 L 14.25240039825439 45.02590179443359 M 14.25240039825439 47.02590179443359 L 14.00040054321289 47.02590179443359 C 6.387480735778809 47.02590179443359 0.1947008073329926 40.95082092285156 0.004520813468843699 33.38460159301758 L 8.132934681270854e-07 33.38460159301758 L 8.132934681270854e-07 33.0255012512207 L 8.132934681270854e-07 14.00040054321289 C 8.132934681270854e-07 6.267601013183594 6.267601013183594 8.97216807516088e-07 14.00040054321289 8.97216807516088e-07 L 14.25240039825439 8.97216807516088e-07 C 21.98430061340332 8.97216807516088e-07 28.25190162658691 6.267601013183594 28.25190162658691 14.00040054321289 L 28.25190162658691 33.38460159301758 L 28.24737167358398 33.38460159301758 C 28.05718994140625 40.95082092285156 21.86443138122559 47.02590179443359 14.25240039825439 47.02590179443359 Z" stroke="none" fill="#606467"/>
    </g>
    <ellipse id="Ellipse_266" data-name="Ellipse 266" cx="2.436" cy="2.436" rx="2.436" ry="2.436" transform="translate(734 986.808)" fill="#606467"/>
    <path id="Path_36" data-name="Path 36" d="M6.7,8.1,2,3.4,3.4,2,6.7,5.3,10,2l1.4,1.4Z" transform="translate(730 1009)" fill="#606467"/>
  </g>
</svg>
