<svg xmlns="http://www.w3.org/2000/svg" width="51.417" height="42.146" viewBox="0 0 51.417 42.146">
  <path id="Path_21418" data-name="Path 21418" d="M49.968.724a26.569,26.569,0,0,1-6.662,2.607A10.485,10.485,0,0,0,35.63,0,10.632,10.632,0,0,0,25.057,10.573a14.27,14.27,0,0,0,.29,2.462A30.071,30.071,0,0,1,3.621,2.028,10.958,10.958,0,0,0,2.173,7.387a10.832,10.832,0,0,0,4.635,8.835,10.7,10.7,0,0,1-4.78-1.3v.145a10.434,10.434,0,0,0,8.4,10.283,9.094,9.094,0,0,1-2.752.435,9.562,9.562,0,0,1-2.028-.145A10.617,10.617,0,0,0,15.5,33.023a20.618,20.618,0,0,1-13.035,4.49A13.252,13.252,0,0,1,0,37.368a29.619,29.619,0,0,0,16.222,4.78C35.63,42.147,46.2,26.07,46.2,12.166v-1.3a18.906,18.906,0,0,0,5.214-5.5,17.174,17.174,0,0,1-6.083,1.593A12.265,12.265,0,0,0,49.968.724Z" transform="translate(0 -0.001)" fill="#393555"/>
</svg>
