<svg xmlns="http://www.w3.org/2000/svg" width="22.192" height="18.191" viewBox="0 0 22.192 18.191">
  <path id="Path_21418" data-name="Path 21418" d="M21.567.313a11.468,11.468,0,0,1-2.876,1.125A4.526,4.526,0,0,0,15.378,0a4.589,4.589,0,0,0-4.563,4.563,6.159,6.159,0,0,0,.125,1.063A12.979,12.979,0,0,1,1.563.875,4.73,4.73,0,0,0,.938,3.188,4.675,4.675,0,0,0,2.938,7,4.619,4.619,0,0,1,.875,6.439V6.5A4.5,4.5,0,0,0,4.5,10.94a3.925,3.925,0,0,1-1.188.188,4.127,4.127,0,0,1-.875-.063,4.583,4.583,0,0,0,4.251,3.188,8.9,8.9,0,0,1-5.626,1.938A5.72,5.72,0,0,1,0,16.128a12.784,12.784,0,0,0,7,2.063,12.85,12.85,0,0,0,12.94-12.94V4.688a8.16,8.16,0,0,0,2.25-2.375A7.412,7.412,0,0,1,19.567,3,5.294,5.294,0,0,0,21.567.313Z" fill="#757890"/>
</svg>
